<svg width="50" height="51" viewBox="0 0 50 51" fill="none" xmlns="http://www.w3.org/2000/svg">
<path d="M14.5793 0C6.53968 0 0 6.60102 0 14.7106V35.7199C0 43.8274 6.54574 50.4223 14.5874 50.4223H35.4207C43.4603 50.4223 50 43.8213 50 35.7117V14.7024C50 6.59491 43.4543 0 35.4126 0H14.5793ZM39.5833 8.40372C40.7333 8.40372 41.6667 9.34493 41.6667 10.5046C41.6667 11.6644 40.7333 12.6056 39.5833 12.6056C38.4333 12.6056 37.5 11.6644 37.5 10.5046C37.5 9.34493 38.4333 8.40372 39.5833 8.40372ZM25 12.6056C31.8937 12.6056 37.5 18.2592 37.5 25.2111C37.5 32.1631 31.8937 37.8167 25 37.8167C18.1062 37.8167 12.5 32.1631 12.5 25.2111C12.5 18.2592 18.1062 12.6056 25 12.6056ZM25 16.8074C22.7899 16.8074 20.6702 17.6928 19.1074 19.2688C17.5446 20.8448 16.6667 22.9823 16.6667 25.2111C16.6667 27.44 17.5446 29.5775 19.1074 31.1535C20.6702 32.7295 22.7899 33.6149 25 33.6149C27.2101 33.6149 29.3298 32.7295 30.8926 31.1535C32.4554 29.5775 33.3333 27.44 33.3333 25.2111C33.3333 22.9823 32.4554 20.8448 30.8926 19.2688C29.3298 17.6928 27.2101 16.8074 25 16.8074Z" fill="#13336E"/>
</svg>
