<svg width="50" height="51" viewBox="0 0 50 51" fill="none" xmlns="http://www.w3.org/2000/svg">
<path d="M45.4545 0H4.54545C2.03409 0 0 2.05127 0 4.58385V45.8385C0 48.371 2.03409 50.4223 4.54545 50.4223H45.4545C47.9659 50.4223 50 48.371 50 45.8385V4.58385C50 2.05127 47.9659 0 45.4545 0ZM15.8045 41.2546H9.1V19.4997H15.8045V41.2546ZM12.3841 16.3895C10.2227 16.3895 8.475 14.6225 8.475 12.4474C8.475 10.2724 10.225 8.50762 12.3841 8.50762C14.5386 8.50762 16.2909 10.2747 16.2909 12.4474C16.2909 14.6225 14.5386 16.3895 12.3841 16.3895ZM40.9182 41.2546H34.2182V30.6751C34.2182 28.1517 34.1727 24.9063 30.7341 24.9063C27.2455 24.9063 26.7091 27.6543 26.7091 30.4917V41.2546H20.0091V19.4997H26.4409V22.4723H26.5318C27.4273 20.7625 29.6136 18.9588 32.875 18.9588C39.6636 18.9588 40.9182 23.4647 40.9182 29.3229V41.2546Z" fill="#13336E"/>
</svg>
